<mxfile host="app.diagrams.net" modified="2023-03-01T23:53:15.832Z" agent="5.0 (Windows NT 10.0; Win64; x64) AppleWebKit/537.36 (KHTML, like Gecko) Chrome/110.0.0.0 Safari/537.36" etag="tsA28EL4YpdrYBw-DKJm" version="20.8.23" type="github">
  <diagram name="Página-1" id="oRmRjDMC46Uwmokc_Y1D">
    <mxGraphModel dx="1195" dy="663" grid="1" gridSize="10" guides="1" tooltips="1" connect="1" arrows="1" fold="1" page="1" pageScale="1" pageWidth="827" pageHeight="1169" math="0" shadow="0">
      <root>
        <mxCell id="0" />
        <mxCell id="1" parent="0" />
        <mxCell id="Rjc6BnXU5ngY9hyuGu32-3" value="" style="edgeStyle=orthogonalEdgeStyle;rounded=0;orthogonalLoop=1;jettySize=auto;html=1;" edge="1" parent="1" source="Rjc6BnXU5ngY9hyuGu32-1" target="Rjc6BnXU5ngY9hyuGu32-2">
          <mxGeometry relative="1" as="geometry" />
        </mxCell>
        <mxCell id="Rjc6BnXU5ngY9hyuGu32-1" value="Inicio" style="ellipse;whiteSpace=wrap;html=1;fillColor=#f5f5f5;fontColor=#333333;strokeColor=#666666;" vertex="1" parent="1">
          <mxGeometry x="370" y="80" width="120" height="80" as="geometry" />
        </mxCell>
        <mxCell id="Rjc6BnXU5ngY9hyuGu32-5" value="" style="edgeStyle=orthogonalEdgeStyle;rounded=0;orthogonalLoop=1;jettySize=auto;html=1;" edge="1" parent="1" source="Rjc6BnXU5ngY9hyuGu32-2" target="Rjc6BnXU5ngY9hyuGu32-4">
          <mxGeometry relative="1" as="geometry" />
        </mxCell>
        <mxCell id="Rjc6BnXU5ngY9hyuGu32-2" value="Ler senha" style="shape=parallelogram;perimeter=parallelogramPerimeter;whiteSpace=wrap;html=1;fixedSize=1;fillColor=#f5f5f5;fontColor=#333333;strokeColor=#666666;" vertex="1" parent="1">
          <mxGeometry x="355" y="210" width="150" height="60" as="geometry" />
        </mxCell>
        <mxCell id="Rjc6BnXU5ngY9hyuGu32-7" value="" style="edgeStyle=orthogonalEdgeStyle;rounded=0;orthogonalLoop=1;jettySize=auto;html=1;" edge="1" parent="1" source="Rjc6BnXU5ngY9hyuGu32-4" target="Rjc6BnXU5ngY9hyuGu32-6">
          <mxGeometry relative="1" as="geometry" />
        </mxCell>
        <mxCell id="Rjc6BnXU5ngY9hyuGu32-4" value="Digite a senha:" style="whiteSpace=wrap;html=1;fillColor=#dae8fc;strokeColor=#6c8ebf;" vertex="1" parent="1">
          <mxGeometry x="370" y="320" width="120" height="60" as="geometry" />
        </mxCell>
        <mxCell id="Rjc6BnXU5ngY9hyuGu32-10" value="" style="edgeStyle=orthogonalEdgeStyle;rounded=0;orthogonalLoop=1;jettySize=auto;html=1;" edge="1" parent="1" source="Rjc6BnXU5ngY9hyuGu32-6" target="Rjc6BnXU5ngY9hyuGu32-9">
          <mxGeometry relative="1" as="geometry">
            <Array as="points">
              <mxPoint x="220" y="475" />
            </Array>
          </mxGeometry>
        </mxCell>
        <mxCell id="Rjc6BnXU5ngY9hyuGu32-11" value="" style="edgeStyle=orthogonalEdgeStyle;rounded=0;orthogonalLoop=1;jettySize=auto;html=1;entryX=0.5;entryY=0;entryDx=0;entryDy=0;" edge="1" parent="1" source="Rjc6BnXU5ngY9hyuGu32-6" target="Rjc6BnXU5ngY9hyuGu32-8">
          <mxGeometry relative="1" as="geometry">
            <mxPoint x="640" y="475" as="targetPoint" />
          </mxGeometry>
        </mxCell>
        <mxCell id="Rjc6BnXU5ngY9hyuGu32-6" value="senha == &#39;123ad&#39;" style="rhombus;whiteSpace=wrap;html=1;fillColor=#fff2cc;strokeColor=#d6b656;" vertex="1" parent="1">
          <mxGeometry x="335" y="420" width="190" height="110" as="geometry" />
        </mxCell>
        <mxCell id="Rjc6BnXU5ngY9hyuGu32-19" value="" style="edgeStyle=orthogonalEdgeStyle;rounded=0;orthogonalLoop=1;jettySize=auto;html=1;exitX=0.563;exitY=0.775;exitDx=0;exitDy=0;exitPerimeter=0;" edge="1" parent="1" source="Rjc6BnXU5ngY9hyuGu32-8" target="Rjc6BnXU5ngY9hyuGu32-18">
          <mxGeometry relative="1" as="geometry">
            <Array as="points">
              <mxPoint x="648" y="620" />
              <mxPoint x="648" y="620" />
            </Array>
          </mxGeometry>
        </mxCell>
        <mxCell id="Rjc6BnXU5ngY9hyuGu32-8" value="Acesso liberado" style="shape=document;whiteSpace=wrap;html=1;boundedLbl=1;fillColor=#d5e8d4;strokeColor=#82b366;" vertex="1" parent="1">
          <mxGeometry x="580" y="505" width="120" height="80" as="geometry" />
        </mxCell>
        <mxCell id="Rjc6BnXU5ngY9hyuGu32-17" style="edgeStyle=orthogonalEdgeStyle;rounded=0;orthogonalLoop=1;jettySize=auto;html=1;entryX=0;entryY=0.5;entryDx=0;entryDy=0;" edge="1" parent="1" source="Rjc6BnXU5ngY9hyuGu32-9" target="Rjc6BnXU5ngY9hyuGu32-4">
          <mxGeometry relative="1" as="geometry">
            <Array as="points">
              <mxPoint x="220" y="670" />
              <mxPoint x="70" y="670" />
              <mxPoint x="70" y="350" />
            </Array>
          </mxGeometry>
        </mxCell>
        <mxCell id="Rjc6BnXU5ngY9hyuGu32-9" value="Senha incorreta" style="shape=document;whiteSpace=wrap;html=1;boundedLbl=1;fillColor=#f8cecc;strokeColor=#b85450;" vertex="1" parent="1">
          <mxGeometry x="160" y="505" width="120" height="80" as="geometry" />
        </mxCell>
        <mxCell id="Rjc6BnXU5ngY9hyuGu32-13" value="NÃO" style="text;html=1;align=center;verticalAlign=middle;resizable=0;points=[];autosize=1;strokeColor=none;fillColor=none;" vertex="1" parent="1">
          <mxGeometry x="230" y="440" width="50" height="30" as="geometry" />
        </mxCell>
        <mxCell id="Rjc6BnXU5ngY9hyuGu32-14" value="SIM" style="text;html=1;align=center;verticalAlign=middle;resizable=0;points=[];autosize=1;strokeColor=none;fillColor=none;" vertex="1" parent="1">
          <mxGeometry x="580" y="440" width="40" height="30" as="geometry" />
        </mxCell>
        <mxCell id="Rjc6BnXU5ngY9hyuGu32-18" value="Terminou" style="strokeWidth=2;html=1;shape=mxgraph.flowchart.terminator;whiteSpace=wrap;fillColor=#d5e8d4;strokeColor=#82b366;" vertex="1" parent="1">
          <mxGeometry x="600" y="630" width="100" height="60" as="geometry" />
        </mxCell>
      </root>
    </mxGraphModel>
  </diagram>
</mxfile>
